<?xml version="1.0" encoding="UTF-8" standalone="no"?>
<!DOCTYPE svg PUBLIC "-//W3C//DTD SVG 1.1//EN"
 "http://www.w3.org/Graphics/SVG/1.1/DTD/svg11.dtd">
<!-- Generated by graphviz version 2.26.3 (20100126.1600)
 -->
<!-- Title: controllers_diagram Pages: 1 -->
<svg width="540pt" height="426pt"
 viewBox="0.00 0.00 540.00 425.61" xmlns="http://www.w3.org/2000/svg" xmlns:xlink="http://www.w3.org/1999/xlink">
<g id="graph1" class="graph" transform="scale(1 1) rotate(0) translate(4 421.613)">
<title>controllers_diagram</title>
<polygon fill="white" stroke="white" points="-4,5 -4,-421.613 537,-421.613 537,5 -4,5"/>
<!-- _diagram_info -->
<g id="node1" class="node"><title>_diagram_info</title>
<text text-anchor="start" x="289" y="-183.3" font-family="Times Roman,serif" font-size="13.00">Controllers diagram</text>
<text text-anchor="start" x="289" y="-166.3" font-family="Times Roman,serif" font-size="13.00">Date: May 18 2013 &#45; 16:45</text>
<text text-anchor="start" x="289" y="-149.3" font-family="Times Roman,serif" font-size="13.00">Migration version: 20130518150740</text>
<text text-anchor="start" x="289" y="-132.3" font-family="Times Roman,serif" font-size="13.00">Generated by RailRoady 1.1.0</text>
<text text-anchor="start" x="289" y="-115.3" font-family="Times Roman,serif" font-size="13.00">http://railroady.prestonlee.com</text>
</g>
<!-- PostsController -->
<g id="node2" class="node"><title>PostsController</title>
<polyline fill="none" stroke="black" points="13,-206.113 111,-206.113 "/>
<path fill="none" stroke="black" d="M111,-206.113C117,-206.113 123,-212.113 123,-218.113"/>
<polyline fill="none" stroke="black" points="123,-218.113 123,-404.113 "/>
<path fill="none" stroke="black" d="M123,-404.113C123,-410.113 117,-416.113 111,-416.113"/>
<polyline fill="none" stroke="black" points="111,-416.113 13,-416.113 "/>
<path fill="none" stroke="black" d="M13,-416.113C7,-416.113 1,-410.113 1,-404.113"/>
<polyline fill="none" stroke="black" points="1,-404.113 1,-218.113 "/>
<path fill="none" stroke="black" d="M1,-218.113C1,-212.113 7,-206.113 13,-206.113"/>
<text text-anchor="middle" x="62" y="-399.513" font-family="Times Roman,serif" font-size="14.00">PostsController</text>
<polyline fill="none" stroke="black" points="1,-390.113 123,-390.113 "/>
<text text-anchor="start" x="9" y="-373.513" font-family="Times Roman,serif" font-size="14.00">create</text>
<text text-anchor="start" x="9" y="-355.513" font-family="Times Roman,serif" font-size="14.00">destroy</text>
<text text-anchor="start" x="9" y="-337.513" font-family="Times Roman,serif" font-size="14.00">edit</text>
<text text-anchor="start" x="9" y="-319.513" font-family="Times Roman,serif" font-size="14.00">index</text>
<text text-anchor="start" x="9" y="-301.513" font-family="Times Roman,serif" font-size="14.00">new</text>
<text text-anchor="start" x="9" y="-283.513" font-family="Times Roman,serif" font-size="14.00">show</text>
<text text-anchor="start" x="9" y="-265.513" font-family="Times Roman,serif" font-size="14.00">update</text>
<polyline fill="none" stroke="black" points="1,-256.113 123,-256.113 "/>
<polyline fill="none" stroke="black" points="1,-232.113 123,-232.113 "/>
<text text-anchor="start" x="9" y="-215.513" font-family="Times Roman,serif" font-size="14.00">_layout</text>
</g>
<!-- ApplicationController -->
<g id="node3" class="node"><title>ApplicationController</title>
<polyline fill="none" stroke="black" points="161.931,-233.03 375.931,-233.03 "/>
<path fill="none" stroke="black" d="M375.931,-233.03C381.931,-233.03 387.931,-239.03 387.931,-245.03"/>
<polyline fill="none" stroke="black" points="387.931,-245.03 387.931,-323.03 "/>
<path fill="none" stroke="black" d="M387.931,-323.03C387.931,-329.03 381.931,-335.03 375.931,-335.03"/>
<polyline fill="none" stroke="black" points="375.931,-335.03 161.931,-335.03 "/>
<path fill="none" stroke="black" d="M161.931,-335.03C155.931,-335.03 149.931,-329.03 149.931,-323.03"/>
<polyline fill="none" stroke="black" points="149.931,-323.03 149.931,-245.03 "/>
<path fill="none" stroke="black" d="M149.931,-245.03C149.931,-239.03 155.931,-233.03 161.931,-233.03"/>
<text text-anchor="middle" x="268.931" y="-318.43" font-family="Times Roman,serif" font-size="14.00">ApplicationController</text>
<polyline fill="none" stroke="black" points="149.931,-309.03 387.931,-309.03 "/>
<text text-anchor="start" x="157.931" y="-292.43" font-family="Times Roman,serif" font-size="14.00">_one_time_conditions_valid_38?</text>
<polyline fill="none" stroke="black" points="149.931,-283.03 387.931,-283.03 "/>
<polyline fill="none" stroke="black" points="149.931,-259.03 387.931,-259.03 "/>
<text text-anchor="start" x="157.931" y="-242.43" font-family="Times Roman,serif" font-size="14.00">_layout</text>
</g>
<!-- ApplicationController&#45;&gt;PostsController -->
<g id="edge2" class="edge"><title>ApplicationController&#45;&gt;PostsController</title>
<path fill="none" stroke="black" d="M149.757,-299.627C140.593,-300.827 131.598,-302.004 123.067,-303.12"/>
</g>
<!-- CommentsController -->
<g id="node4" class="node"><title>CommentsController</title>
<polyline fill="none" stroke="black" points="79.7052,-1.5 214.705,-1.5 "/>
<path fill="none" stroke="black" d="M214.705,-1.5C220.705,-1.5 226.705,-7.5 226.705,-13.5"/>
<polyline fill="none" stroke="black" points="226.705,-13.5 226.705,-109.5 "/>
<path fill="none" stroke="black" d="M226.705,-109.5C226.705,-115.5 220.705,-121.5 214.705,-121.5"/>
<polyline fill="none" stroke="black" points="214.705,-121.5 79.7052,-121.5 "/>
<path fill="none" stroke="black" d="M79.7052,-121.5C73.7052,-121.5 67.7052,-115.5 67.7052,-109.5"/>
<polyline fill="none" stroke="black" points="67.7052,-109.5 67.7052,-13.5 "/>
<path fill="none" stroke="black" d="M67.7052,-13.5C67.7052,-7.5 73.7052,-1.5 79.7052,-1.5"/>
<text text-anchor="middle" x="147.205" y="-104.9" font-family="Times Roman,serif" font-size="14.00">CommentsController</text>
<polyline fill="none" stroke="black" points="67.7052,-95.5 226.705,-95.5 "/>
<text text-anchor="start" x="75.7052" y="-78.9" font-family="Times Roman,serif" font-size="14.00">create</text>
<text text-anchor="start" x="75.7052" y="-60.9" font-family="Times Roman,serif" font-size="14.00">destroy</text>
<polyline fill="none" stroke="black" points="67.7052,-51.5 226.705,-51.5 "/>
<polyline fill="none" stroke="black" points="67.7052,-27.5 226.705,-27.5 "/>
<text text-anchor="start" x="75.7052" y="-10.9" font-family="Times Roman,serif" font-size="14.00">_layout</text>
</g>
<!-- ApplicationController&#45;&gt;CommentsController -->
<g id="edge4" class="edge"><title>ApplicationController&#45;&gt;CommentsController</title>
<path fill="none" stroke="black" d="M241.004,-232.977C222.895,-199.871 199.219,-156.588 180.185,-121.791"/>
</g>
</g>
</svg>
