<?xml version="1.0" encoding="UTF-8" standalone="no"?>
<!DOCTYPE svg PUBLIC "-//W3C//DTD SVG 1.1//EN"
 "http://www.w3.org/Graphics/SVG/1.1/DTD/svg11.dtd">
<!-- Generated by graphviz version 2.26.3 (20100126.1600)
 -->
<!-- Title: models_diagram Pages: 1 -->
<svg width="426pt" height="176pt"
 viewBox="0.00 0.00 426.00 176.00" xmlns="http://www.w3.org/2000/svg" xmlns:xlink="http://www.w3.org/1999/xlink">
<g id="graph1" class="graph" transform="scale(1 1) rotate(0) translate(4 172)">
<title>models_diagram</title>
<polygon fill="white" stroke="white" points="-4,5 -4,-172 423,-172 423,5 -4,5"/>
<!-- _diagram_info -->
<g id="node1" class="node"><title>_diagram_info</title>
<text text-anchor="start" x="8" y="-151.8" font-family="Times Roman,serif" font-size="13.00">Models diagram</text>
<text text-anchor="start" x="8" y="-134.8" font-family="Times Roman,serif" font-size="13.00">Date: May 18 2013 &#45; 16:45</text>
<text text-anchor="start" x="8" y="-117.8" font-family="Times Roman,serif" font-size="13.00">Migration version: 20130518150740</text>
<text text-anchor="start" x="8" y="-100.8" font-family="Times Roman,serif" font-size="13.00">Generated by RailRoady 1.1.0</text>
<text text-anchor="start" x="8" y="-83.8" font-family="Times Roman,serif" font-size="13.00">http://railroady.prestonlee.com</text>
</g>
<!-- Comment -->
<g id="node2" class="node"><title>Comment</title>
<ellipse fill="none" stroke="black" cx="300" cy="-19" rx="58.1882" ry="18.3848"/>
<text text-anchor="middle" x="300" y="-15.4" font-family="Times Roman,serif" font-size="14.00">Comment</text>
</g>
<!-- User -->
<g id="node3" class="node"><title>User</title>
<ellipse fill="none" stroke="black" cx="384" cy="-121" rx="33.9411" ry="18.3848"/>
<text text-anchor="middle" x="384" y="-117.4" font-family="Times Roman,serif" font-size="14.00">User</text>
</g>
<!-- Post -->
<g id="node4" class="node"><title>Post</title>
<ellipse fill="none" stroke="black" cx="300" cy="-121" rx="32.0265" ry="18.3848"/>
<text text-anchor="middle" x="300" y="-117.4" font-family="Times Roman,serif" font-size="14.00">Post</text>
</g>
<!-- Post&#45;&gt;Comment -->
<g id="edge2" class="edge"><title>Post&#45;&gt;Comment</title>
<path fill="none" stroke="#b16dbc" d="M300,-94.0151C300,-79.8348 300,-62.4446 300,-47.9795"/>
<ellipse fill="none" stroke="#b16dbc" cx="300" cy="-98.2916" rx="4" ry="4"/>
<polygon fill="#b16dbc" stroke="#b16dbc" points="300,-47.5898 304.5,-37.5897 300,-42.5898 300,-37.5898 300,-37.5898 300,-37.5898 300,-42.5898 295.5,-37.5898 300,-47.5898 300,-47.5898"/>
</g>
</g>
</svg>
