<?xml version="1.0" encoding="UTF-8" standalone="no"?>
<!DOCTYPE svg PUBLIC "-//W3C//DTD SVG 1.1//EN"
 "http://www.w3.org/Graphics/SVG/1.1/DTD/svg11.dtd">
<!-- Generated by graphviz version 2.26.3 (20100126.1600)
 -->
<!-- Title: models_diagram Pages: 1 -->
<svg width="712pt" height="458pt"
 viewBox="0.00 0.00 712.00 458.00" xmlns="http://www.w3.org/2000/svg" xmlns:xlink="http://www.w3.org/1999/xlink">
<g id="graph1" class="graph" transform="scale(1 1) rotate(0) translate(4 454)">
<title>models_diagram</title>
<polygon fill="white" stroke="white" points="-4,5 -4,-454 709,-454 709,5 -4,5"/>
<!-- _diagram_info -->
<g id="node1" class="node"><title>_diagram_info</title>
<text text-anchor="start" x="8" y="-345.8" font-family="Times Roman,serif" font-size="13.00">Models diagram</text>
<text text-anchor="start" x="8" y="-328.8" font-family="Times Roman,serif" font-size="13.00">Date: May 18 2013 &#45; 16:45</text>
<text text-anchor="start" x="8" y="-311.8" font-family="Times Roman,serif" font-size="13.00">Migration version: 20130518150740</text>
<text text-anchor="start" x="8" y="-294.8" font-family="Times Roman,serif" font-size="13.00">Generated by RailRoady 1.1.0</text>
<text text-anchor="start" x="8" y="-277.8" font-family="Times Roman,serif" font-size="13.00">http://railroady.prestonlee.com</text>
</g>
<!-- Comment -->
<g id="node2" class="node"><title>Comment</title>
<polyline fill="none" stroke="black" points="279.5,-1 420.5,-1 "/>
<path fill="none" stroke="black" d="M420.5,-1C426.5,-1 432.5,-7 432.5,-13"/>
<polyline fill="none" stroke="black" points="432.5,-13 432.5,-131 "/>
<path fill="none" stroke="black" d="M432.5,-131C432.5,-137 426.5,-143 420.5,-143"/>
<polyline fill="none" stroke="black" points="420.5,-143 279.5,-143 "/>
<path fill="none" stroke="black" d="M279.5,-143C273.5,-143 267.5,-137 267.5,-131"/>
<polyline fill="none" stroke="black" points="267.5,-131 267.5,-13 "/>
<path fill="none" stroke="black" d="M267.5,-13C267.5,-7 273.5,-1 279.5,-1"/>
<text text-anchor="middle" x="350" y="-126.4" font-family="Times Roman,serif" font-size="14.00">Comment</text>
<polyline fill="none" stroke="black" points="267.5,-117 432.5,-117 "/>
<text text-anchor="start" x="275.5" y="-100.4" font-family="Times Roman,serif" font-size="14.00">id :integer</text>
<text text-anchor="start" x="275.5" y="-82.4" font-family="Times Roman,serif" font-size="14.00">commenter :string</text>
<text text-anchor="start" x="275.5" y="-64.4" font-family="Times Roman,serif" font-size="14.00">body :text</text>
<text text-anchor="start" x="275.5" y="-46.4" font-family="Times Roman,serif" font-size="14.00">post_id :integer</text>
<text text-anchor="start" x="275.5" y="-28.4" font-family="Times Roman,serif" font-size="14.00">created_at :datetime</text>
<text text-anchor="start" x="275.5" y="-10.4" font-family="Times Roman,serif" font-size="14.00">updated_at :datetime</text>
</g>
<!-- User -->
<g id="node3" class="node"><title>User</title>
<polyline fill="none" stroke="black" points="462,-181 692,-181 "/>
<path fill="none" stroke="black" d="M692,-181C698,-181 704,-187 704,-193"/>
<polyline fill="none" stroke="black" points="704,-193 704,-437 "/>
<path fill="none" stroke="black" d="M704,-437C704,-443 698,-449 692,-449"/>
<polyline fill="none" stroke="black" points="692,-449 462,-449 "/>
<path fill="none" stroke="black" d="M462,-449C456,-449 450,-443 450,-437"/>
<polyline fill="none" stroke="black" points="450,-437 450,-193 "/>
<path fill="none" stroke="black" d="M450,-193C450,-187 456,-181 462,-181"/>
<text text-anchor="middle" x="577" y="-432.4" font-family="Times Roman,serif" font-size="14.00">User</text>
<polyline fill="none" stroke="black" points="450,-423 704,-423 "/>
<text text-anchor="start" x="458" y="-406.4" font-family="Times Roman,serif" font-size="14.00">id :integer</text>
<text text-anchor="start" x="458" y="-388.4" font-family="Times Roman,serif" font-size="14.00">email :string</text>
<text text-anchor="start" x="458" y="-370.4" font-family="Times Roman,serif" font-size="14.00">encrypted_password :string</text>
<text text-anchor="start" x="458" y="-352.4" font-family="Times Roman,serif" font-size="14.00">reset_password_token :string</text>
<text text-anchor="start" x="458" y="-334.4" font-family="Times Roman,serif" font-size="14.00">reset_password_sent_at :datetime</text>
<text text-anchor="start" x="458" y="-316.4" font-family="Times Roman,serif" font-size="14.00">remember_created_at :datetime</text>
<text text-anchor="start" x="458" y="-298.4" font-family="Times Roman,serif" font-size="14.00">sign_in_count :integer</text>
<text text-anchor="start" x="458" y="-280.4" font-family="Times Roman,serif" font-size="14.00">current_sign_in_at :datetime</text>
<text text-anchor="start" x="458" y="-262.4" font-family="Times Roman,serif" font-size="14.00">last_sign_in_at :datetime</text>
<text text-anchor="start" x="458" y="-244.4" font-family="Times Roman,serif" font-size="14.00">current_sign_in_ip :string</text>
<text text-anchor="start" x="458" y="-226.4" font-family="Times Roman,serif" font-size="14.00">last_sign_in_ip :string</text>
<text text-anchor="start" x="458" y="-208.4" font-family="Times Roman,serif" font-size="14.00">created_at :datetime</text>
<text text-anchor="start" x="458" y="-190.4" font-family="Times Roman,serif" font-size="14.00">updated_at :datetime</text>
</g>
<!-- Post -->
<g id="node4" class="node"><title>Post</title>
<polyline fill="none" stroke="black" points="279.5,-235 420.5,-235 "/>
<path fill="none" stroke="black" d="M420.5,-235C426.5,-235 432.5,-241 432.5,-247"/>
<polyline fill="none" stroke="black" points="432.5,-247 432.5,-383 "/>
<path fill="none" stroke="black" d="M432.5,-383C432.5,-389 426.5,-395 420.5,-395"/>
<polyline fill="none" stroke="black" points="420.5,-395 279.5,-395 "/>
<path fill="none" stroke="black" d="M279.5,-395C273.5,-395 267.5,-389 267.5,-383"/>
<polyline fill="none" stroke="black" points="267.5,-383 267.5,-247 "/>
<path fill="none" stroke="black" d="M267.5,-247C267.5,-241 273.5,-235 279.5,-235"/>
<text text-anchor="middle" x="350" y="-378.4" font-family="Times Roman,serif" font-size="14.00">Post</text>
<polyline fill="none" stroke="black" points="267.5,-369 432.5,-369 "/>
<text text-anchor="start" x="275.5" y="-352.4" font-family="Times Roman,serif" font-size="14.00">id :integer</text>
<text text-anchor="start" x="275.5" y="-334.4" font-family="Times Roman,serif" font-size="14.00">name :string</text>
<text text-anchor="start" x="275.5" y="-316.4" font-family="Times Roman,serif" font-size="14.00">title :string</text>
<text text-anchor="start" x="275.5" y="-298.4" font-family="Times Roman,serif" font-size="14.00">content :text</text>
<text text-anchor="start" x="275.5" y="-280.4" font-family="Times Roman,serif" font-size="14.00">created_at :datetime</text>
<text text-anchor="start" x="275.5" y="-262.4" font-family="Times Roman,serif" font-size="14.00">updated_at :datetime</text>
<text text-anchor="start" x="275.5" y="-244.4" font-family="Times Roman,serif" font-size="14.00">published :boolean</text>
</g>
<!-- Post&#45;&gt;Comment -->
<g id="edge2" class="edge"><title>Post&#45;&gt;Comment</title>
<path fill="none" stroke="#1cab8b" d="M350,-226.702C350,-202.772 350,-176.981 350,-153.447"/>
<ellipse fill="none" stroke="#1cab8b" cx="350" cy="-230.759" rx="4" ry="4"/>
<polygon fill="#1cab8b" stroke="#1cab8b" points="350,-153.161 354.5,-143.161 350,-148.161 350,-143.161 350,-143.161 350,-143.161 350,-148.161 345.5,-143.161 350,-153.161 350,-153.161"/>
</g>
</g>
</svg>
